<svg width="97" height="114" viewBox="0 0 97 114" fill="none" xmlns="http://www.w3.org/2000/svg">
<path d="M80.4497 60.245C80.3947 50.9007 84.6385 43.8582 93.2085 38.6653C88.4153 31.8146 81.1638 28.0467 71.605 27.3206C62.5544 26.6081 52.6522 32.5819 49.0265 32.5819C45.1947 32.5819 36.4325 27.5672 29.5381 27.5672C15.3098 27.7864 0.188721 38.8845 0.188721 61.4644C0.188721 68.137 1.41104 75.0288 3.85567 82.1261C7.12434 91.4705 18.908 114.366 31.1999 113.996C37.6273 113.845 42.1733 109.447 50.5372 109.447C58.654 109.447 62.8565 113.996 70.0256 113.996C82.4273 113.817 93.0849 93.005 96.1887 83.6333C79.557 75.8098 80.4497 60.7246 80.4497 60.245ZM66.0153 18.4558C72.9784 10.2075 72.3467 2.69917 72.1407 0C65.9879 0.356236 58.8737 4.17892 54.8222 8.8785C50.3587 13.9206 47.7355 20.1547 48.2986 27.1836C54.9458 27.6905 61.0162 24.2789 66.0153 18.4558Z" fill="white"/>
</svg>
