<svg width="41" height="44" viewBox="0 0 41 44" fill="none" xmlns="http://www.w3.org/2000/svg">
<path d="M30.2396 28.7245C35.4383 25.8624 39.3792 23.6815 39.7189 23.5119C40.8056 22.9325 41.9278 21.3989 39.7189 20.2077C39.0057 19.8331 35.166 17.7201 30.2396 14.9952L23.4102 21.9107L30.2396 28.7243V28.7245Z" fill="#FFD900"/>
<path d="M23.4102 21.9107L1.66467 43.8855C2.17509 43.9533 2.75133 43.8176 3.43072 43.4431C4.85707 42.6602 19.9777 34.3807 30.2396 28.7261L23.4102 21.9107Z" fill="#F43249"/>
<path d="M23.4102 21.9107L30.2396 15.0292C30.2396 15.0292 4.96022 1.19635 3.43073 0.379783C2.85448 0.0375785 2.20873 -0.0640711 1.63089 0.0375785L23.4102 21.9107Z" fill="#00EE76"/>
<path d="M23.4102 21.9099L1.63087 0.0367737C0.746969 0.241679 0 1.02469 0 2.62603V41.2954C0 42.7611 0.578004 43.8168 1.66466 43.9186L23.4102 21.9099Z" fill="#00D3FF"/>
</svg>
