<svg width="92" height="82" viewBox="0 0 92 82" fill="none" xmlns="http://www.w3.org/2000/svg">
<path d="M50.4756 37.0996C42.7494 35.0915 40.2647 33.0153 40.2647 29.7818C40.2647 26.0718 43.7024 23.4851 49.4546 23.4851C55.513 23.4851 57.7594 26.3782 57.9636 30.6327H65.4857C65.2474 24.7785 61.6736 19.4007 54.56 17.6649V10.2109H44.3491V17.5628C37.7461 18.9923 32.4364 23.2809 32.4364 29.8499C32.4364 37.7123 38.9373 41.6265 48.4335 43.9069C56.9426 45.9491 58.6444 48.9443 58.6444 52.1097C58.6444 54.4582 56.9766 58.2022 49.4546 58.2022C42.4431 58.2022 39.6861 55.0708 39.3117 51.0545H31.8237C32.2322 58.5085 37.8141 62.695 44.3491 64.0904V71.4763H54.56V64.1585C61.1971 62.8992 66.4727 59.0531 66.4727 52.0756C66.4727 42.4093 58.2019 39.1078 50.4756 37.0996Z" fill="#F0F0F0"/>
<path d="M18.4594 43.6H11.1794V50.76H7.81938V43.6H0.539375V40.44H7.81938V33.24H11.1794V40.44H18.4594V43.6Z" fill="#F0F0F0"/>
</svg>
